# xmcd
#
# Track frame offsets:
#	150
#	14704
#	29768
#	43508
#	56944
#	67670
#	79111
#	95062
#	109768
#	124464
#	137179
#	148513
#	161488
#	175008
#
# Disc length: 2547 seconds
#
# Revision: 1
# Processed by: cddbd v1.5.1PL0 Copyright (c) Steve Scherf et al.
# Submitted via: audiograbber 1.83.01
#
DISCID=ca09f10e
DTITLE=Various Artist - Feste Feiern
DYEAR=2004
DGENRE=Folklore
TTITLE0=Marianne and Michael - Feste feiern
TTITLE1=Stefanie Hertel and Stefan Mross - Mambofieber
TTITLE2=Heino - Griechischer Wein
TTITLE3=Medium Terzett - Der schönste Platz ist immer an der Theke
TTITLE4=Plattlinger Isarspatzen - Jetzt trink ma no a Flascherl Wein
TTITLE5=Horst Herrmann - Geh Oide, schau mi net so deppert an
TTITLE6=Münchner Stadtmusikanten - Resi, i hol di mit mei´m Traktor ab
TTITLE7=Eberhard Hertel - Wenn das kein Grund zum Feiern ist
TTITLE8=Blechblos´n - Uns ziagt koaner die Lederhos´n aus
TTITLE9=Wolpertinger - Ententanz
TTITLE10=Florian Silbereisen - Bayernbuam san stark und g´scheit
TTITLE11=AlpenRebellen - An der Wand entlang
TTITLE12=Géraldine Olivier - Ein bisschen feiern
TTITLE13=Hias - I bin der Hias (Der Anton aus Tirol)
EXTD=
EXTT0=
EXTT1=
EXTT2=
EXTT3=
EXTT4=
EXTT5=
EXTT6=
EXTT7=
EXTT8=
EXTT9=
EXTT10=
EXTT11=
EXTT12=
EXTT13=
PLAYORDER=
